<?xml version="1.0" standalone="no"?>
<!DOCTYPE svg PUBLIC "-//W3C//DTD SVG 20010904//EN"
 "http://www.w3.org/TR/2001/REC-SVG-20010904/DTD/svg10.dtd">
<svg version="1.0" xmlns="http://www.w3.org/2000/svg"
 width="1280.000000pt" height="1224.000000pt" viewBox="0 0 1280.000000 1224.000000"
 preserveAspectRatio="xMidYMid meet">
<metadata>
Created by potrace 1.15, written by Peter Selinger 2001-2017
</metadata>
<g transform="translate(0.000000,1224.000000) scale(0.100000,-0.100000)"
fill="#000000" stroke="none">
<path d="M416 12224 c-172 -42 -311 -172 -385 -362 l-26 -67 -3 -1237 c-3
-1364 -5 -1313 60 -1446 64 -133 220 -259 358 -291 30 -7 474 -11 1295 -11
1379 0 1304 -3 1429 63 82 43 172 136 218 223 72 137 68 51 68 1427 0 1094 -2
1246 -16 1300 -45 174 -175 318 -349 388 l-60 24 -1265 2 c-1068 1 -1274 -1
-1324 -13z"/>
<path d="M5051 12224 c-195 -52 -334 -192 -398 -399 -17 -57 -18 -125 -18
-1295 0 -1356 -3 -1283 62 -1417 65 -133 189 -239 332 -283 61 -19 99 -20
1323 -20 l1259 0 76 25 c188 63 326 222 368 420 22 105 22 2435 0 2540 -44
212 -202 377 -410 430 -87 22 -2511 22 -2594 -1z"/>
<path d="M9688 12224 c-187 -45 -345 -202 -398 -395 -20 -75 -20 -89 -18
-1330 l3 -1254 23 -62 c31 -83 90 -172 154 -233 56 -53 165 -113 238 -129 62
-14 2528 -14 2590 0 73 16 182 76 238 129 64 61 123 150 154 233 l23 62 3
1254 c2 1100 0 1261 -13 1314 -53 205 -211 366 -407 412 -91 21 -2502 21
-2590 -1z"/>
<path d="M385 7846 c-39 -12 -95 -38 -125 -57 -121 -78 -226 -236 -249 -377
-8 -48 -11 -421 -9 -1297 l3 -1230 26 -67 c57 -146 145 -251 264 -315 127 -67
50 -64 1447 -61 l1263 3 60 22 c169 64 304 215 349 389 14 55 16 202 16 1301
0 1375 4 1290 -67 1426 -45 86 -138 181 -220 224 -123 66 -49 63 -1433 63
l-1255 -1 -70 -23z"/>
<path d="M5041 7854 c-83 -22 -170 -73 -237 -139 -71 -71 -113 -142 -146 -245
l-23 -75 0 -1245 0 -1245 28 -80 c69 -195 222 -336 405 -374 37 -8 424 -11
1285 -11 1064 0 1241 2 1296 15 198 47 362 221 406 430 22 105 22 2435 0 2540
-44 210 -201 378 -401 430 -85 22 -2530 21 -2613 -1z"/>
<path d="M9663 7851 c-158 -45 -301 -184 -365 -354 l-23 -62 -3 -1254 c-2
-1250 -2 -1253 19 -1332 51 -191 205 -344 395 -394 51 -13 218 -15 1299 -15
1375 0 1293 -4 1426 66 88 46 186 148 228 237 65 136 62 58 59 1438 l-3 1254
-23 62 c-65 174 -206 309 -370 354 -63 18 -129 19 -1322 18 -1170 0 -1259 -2
-1317 -18z"/>
<path d="M480 3500 c-205 -25 -372 -164 -448 -371 l-27 -74 -3 -1235 c-3
-1376 -6 -1310 65 -1452 43 -84 132 -179 215 -226 31 -18 91 -41 134 -52 75
-19 113 -20 1294 -20 824 0 1235 3 1276 11 198 36 375 204 429 409 23 84 22
2508 0 2595 -49 193 -205 353 -395 406 -35 10 -322 13 -1260 15 -668 1 -1244
-2 -1280 -6z"/>
<path d="M5115 3500 c-232 -26 -427 -215 -470 -455 -21 -117 -21 -2392 0
-2508 39 -223 212 -408 422 -452 100 -21 2465 -22 2564 -1 214 46 377 215 425
439 21 103 21 2429 -1 2532 -43 200 -186 364 -374 428 l-66 22 -1215 1 c-668
1 -1246 -2 -1285 -6z"/>
<path d="M9780 3504 c-203 -21 -365 -132 -449 -307 -22 -45 -44 -106 -50 -135
-8 -37 -11 -432 -11 -1275 0 -1355 -3 -1286 67 -1419 68 -129 176 -223 310
-270 l68 -23 1270 0 1270 0 68 23 c177 62 318 219 362 403 22 96 22 2482 0
2578 -35 146 -145 292 -274 360 -132 70 -37 65 -1381 67 -668 0 -1231 0 -1250
-2z"/>
</g>
</svg>
