<?xml version="1.0" standalone="no"?>
<!DOCTYPE svg PUBLIC "-//W3C//DTD SVG 20010904//EN"
 "http://www.w3.org/TR/2001/REC-SVG-20010904/DTD/svg10.dtd">
<svg version="1.0" xmlns="http://www.w3.org/2000/svg"
 width="1248.000000pt" height="1280.000000pt" viewBox="0 0 1248.000000 1280.000000"
 preserveAspectRatio="xMidYMid meet">
<metadata>
Created by potrace 1.15, written by Peter Selinger 2001-2017
</metadata>
<g transform="translate(0.000000,1280.000000) scale(0.100000,-0.100000)"
fill="#000000" stroke="none">
<path d="M8151 12789 c-198 -21 -377 -71 -539 -151 -289 -142 -499 -387 -602
-703 -12 -38 -24 -71 -25 -73 -2 -2 -47 19 -101 46 -263 131 -516 212 -774
246 -74 10 -309 8 -390 -4 -603 -86 -1108 -552 -1524 -1410 -301 -622 -481
-1175 -886 -2735 l-73 -280 -249 -170 c-137 -93 -261 -179 -275 -191 l-26 -21
51 -65 c29 -36 52 -68 52 -71 0 -3 -24 -16 -53 -30 -100 -46 -2662 -1250
-2665 -1253 -6 -4 -32 -212 -49 -394 -23 -250 -23 -830 0 -1075 110 -1126 464
-2113 1104 -3073 l115 -173 150 223 c82 123 151 224 152 226 2 1 125 -67 274
-152 l271 -154 208 68 c222 73 784 256 1207 392 l259 84 44 144 c24 80 54 181
68 225 l24 80 74 28 74 28 26 152 c62 352 71 472 71 877 1 334 -2 393 -22 540
-88 649 -258 1139 -747 2155 -163 339 -377 806 -372 812 9 8 648 -807 642
-817 -3 -4 -28 -10 -57 -14 -108 -14 -109 8 4 -224 278 -576 424 -957 532
-1387 173 -695 175 -1398 5 -2150 -16 -71 -36 -151 -44 -177 -8 -26 -11 -48
-7 -48 10 0 81 109 153 235 146 257 246 374 376 436 91 44 184 49 383 20 156
-22 426 -52 660 -73 225 -20 1027 -17 1250 5 844 83 1488 253 2128 563 569
274 1057 634 1479 1089 995 1073 1471 2601 1307 4200 -107 1047 -482 2082
-1090 3008 -148 225 -203 295 -320 407 -371 356 -987 647 -1584 749 -226 39
-476 50 -669 30z m-1256 -1310 c247 -28 416 -96 481 -192 26 -37 29 -51 29
-118 0 -76 0 -76 -83 -235 -406 -780 -721 -1459 -852 -1839 -99 -289 -178
-701 -259 -1361 -15 -126 -34 -240 -41 -253 -8 -16 -9 -26 -2 -33 7 -7 7 -20
0 -40 -8 -22 -15 -28 -30 -25 -28 8 -56 -38 -39 -65 11 -17 9 -24 -9 -43 -12
-13 -28 -21 -35 -19 -7 3 -19 -10 -28 -34 -21 -52 -154 -175 -279 -259 -141
-94 -277 -146 -448 -173 -62 -9 -247 -12 -205 -3 402 89 701 264 894 523 70
93 138 223 146 276 3 21 19 152 36 289 53 439 125 856 180 1054 102 362 380
980 822 1826 79 151 104 235 92 309 -15 87 -68 152 -163 200 -96 48 -296 86
-447 86 -92 0 -145 -30 -249 -141 -320 -340 -629 -1146 -816 -2129 -113 -593
-167 -1119 -177 -1728 l-6 -353 -61 6 c-131 12 -614 46 -676 47 -112 2 -142
-35 -120 -155 7 -40 11 -74 9 -76 -5 -5 -145 -2 -194 5 l-40 6 -23 116 c-26
136 -27 144 -7 181 16 31 59 51 109 51 17 0 222 -27 455 -60 233 -33 428 -60
433 -60 4 0 8 132 8 294 0 1484 336 2972 845 3736 116 175 242 304 375 384 44
27 47 27 165 21 66 -3 161 -10 210 -16z m1655 -410 c19 -11 27 -18 17 -15 -10
4 -37 9 -60 12 -62 10 -81 23 -32 23 22 0 56 -9 75 -20z m-815 -1569 c60 -69
120 -138 134 -155 43 -50 -60 52 -178 178 -61 65 -108 123 -105 129 8 12 9 11
149 -152z m-623 -262 c-1 -10 9 -20 29 -27 40 -14 39 -14 39 4 0 18 -1 18 39
4 21 -8 31 -17 29 -28 -3 -10 8 -22 26 -32 l29 -16 -36 -12 c-20 -7 -37 -15
-37 -18 0 -4 12 -22 27 -42 l26 -36 -26 24 c-21 19 -29 22 -41 12 -20 -17 -62
35 -44 56 17 21 -34 72 -55 54 -12 -9 -19 -7 -36 14 -17 22 -18 30 -8 46 14
23 43 21 39 -3z m243 -78 c4 -6 -5 -10 -20 -10 -15 0 -24 4 -20 10 3 6 12 10
20 10 8 0 17 -4 20 -10z m-46 -159 c17 -24 19 -31 7 -40 -11 -9 -18 -6 -35 15
-22 28 -25 37 -14 47 12 12 21 7 42 -22z m83 -108 c18 -16 25 -43 11 -43 -12
0 -43 33 -43 47 0 17 10 17 32 -4z m96 -123 c13 -16 19 -30 15 -30 -10 0 -53
42 -53 52 0 17 17 7 38 -22z m-228 -345 c0 -8 12 -18 28 -22 l27 -6 -29 -8
c-35 -10 -33 -11 -41 24 -5 17 -3 27 4 27 6 0 11 -7 11 -15z m686 -246 c4 -8
1 -8 -14 0 -12 6 -24 16 -28 22 -4 8 -1 8 14 0 12 -6 24 -16 28 -22z m-1352
-1152 c-15 -26 -37 -46 -46 -41 -4 3 1 19 13 35 19 27 48 32 33 6z m-94 -106
c0 -5 -12 -16 -26 -26 l-27 -17 19 26 c19 26 34 33 34 17z m-636 -123 c-10 -4
-109 -46 -218 -93 -110 -46 -201 -83 -202 -82 -8 8 411 194 424 189 13 -5 12
-7 -4 -14z m271 -28 c3 -5 2 -10 -4 -10 -5 0 -13 5 -16 10 -3 6 -2 10 4 10 5
0 13 -4 16 -10z m119 -29 c18 -7 17 -9 -11 -29 -27 -19 -32 -20 -43 -7 -9 10
-9 15 -1 15 6 0 11 7 11 15 0 16 14 18 44 6z m-5614 -1280 c309 -96 730 -598
1066 -1271 277 -554 455 -1110 519 -1619 24 -184 17 -481 -13 -593 -69 -255
-213 -348 -424 -274 -176 62 -402 265 -624 561 -391 519 -749 1326 -893 2011
-55 260 -65 352 -65 589 -1 195 2 230 21 307 65 257 204 354 413 289z"/>
<path d="M507 5306 c-90 -33 -152 -117 -188 -251 -31 -115 -37 -373 -14 -556
57 -453 225 -974 476 -1479 289 -579 626 -996 918 -1137 67 -33 85 -37 151
-37 114 -1 180 42 234 150 153 307 60 994 -236 1734 -300 750 -735 1364 -1092
1541 -96 47 -183 60 -249 35z"/>
</g>
</svg>
