<?xml version="1.0" standalone="no"?>
<!DOCTYPE svg PUBLIC "-//W3C//DTD SVG 20010904//EN"
 "http://www.w3.org/TR/2001/REC-SVG-20010904/DTD/svg10.dtd">
<svg version="1.0" xmlns="http://www.w3.org/2000/svg"
 width="1280.000000pt" height="1280.000000pt" viewBox="0 0 1280.000000 1280.000000"
 preserveAspectRatio="xMidYMid meet">
<metadata>
Created by potrace 1.15, written by Peter Selinger 2001-2017
</metadata>
<g transform="translate(0.000000,1280.000000) scale(0.100000,-0.100000)"
fill="#000000" stroke="none">
<path d="M6265 11590 c-324 -4 -857 -11 -1182 -15 l-593 -7 -204 -217 c-112
-119 -203 -217 -202 -219 3 -2 2008 54 3136 88 173 5 447 13 608 16 161 4 291
10 290 14 -2 4 -92 84 -200 179 l-198 171 -432 -2 c-238 -1 -698 -5 -1023 -8z"/>
<path d="M7868 11203 c-71 -2 -128 -6 -128 -10 0 -6 127 -661 216 -1118 61
-313 49 -168 134 -1565 43 -703 44 -715 55 -714 6 1 81 18 169 39 l158 37 -6
82 c-3 44 -26 513 -51 1041 -25 528 -49 985 -54 1015 -10 54 -114 591 -193
993 l-41 207 -66 -2 c-36 -1 -123 -4 -193 -5z"/>
<path d="M4278 11100 c-108 -3 -199 -7 -202 -10 -2 -3 -19 -334 -37 -735 -31
-687 -33 -790 -37 -1747 l-3 -1018 23 0 c22 0 280 33 353 45 l31 5 -28 270
c-15 148 -73 571 -128 939 l-100 670 111 523 c60 288 135 640 165 782 30 143
53 265 52 270 -2 8 -65 9 -200 6z"/>
<path d="M4786 10991 c-55 -55 -97 -103 -94 -107 8 -7 -109 5 1370 -150 l1287
-134 128 25 c70 14 132 27 137 28 4 2 -64 49 -151 105 l-160 102 -149 15 c-82
8 -247 24 -366 35 -120 11 -314 29 -430 40 -279 26 -1275 118 -1358 126 -36 3
-76 7 -90 10 -21 4 -41 -12 -124 -95z"/>
<path d="M4664 10557 c4 -155 11 -415 16 -577 5 -162 12 -426 16 -586 l7 -291
58 -36 c33 -21 61 -37 64 -37 4 0 33 18 66 41 l60 40 -6 92 c-5 78 -15 348
-50 1287 -3 80 -8 186 -11 237 l-6 91 -76 6 c-43 4 -92 8 -111 11 l-34 4 7
-282z"/>
<path d="M7468 10598 c-54 -11 -98 -26 -98 -32 0 -29 240 -1220 247 -1227 19
-17 263 -127 263 -117 0 12 -259 1356 -266 1381 -7 21 -22 20 -146 -5z"/>
<path d="M7205 9196 l-270 -174 -140 72 c-77 41 -220 115 -317 165 l-177 92
-227 -151 c-193 -130 -230 -151 -248 -142 -11 5 -122 67 -246 136 -124 70
-228 128 -231 129 -3 1 -123 -74 -265 -167 -142 -93 -264 -169 -270 -169 -6 0
-106 64 -222 143 l-211 142 -63 -49 c-43 -34 -62 -56 -61 -69 17 -131 105
-776 109 -796 3 -16 8 -28 10 -28 3 0 89 64 192 142 103 78 192 145 199 150 7
6 60 -46 164 -162 151 -169 153 -170 173 -152 19 17 294 243 407 335 l47 38
308 -195 c266 -169 310 -194 324 -182 8 7 113 93 233 189 l219 176 171 -150
c94 -82 176 -148 183 -145 7 3 101 75 208 161 108 86 200 153 206 150 6 -3
114 -96 241 -205 l231 -200 27 20 c14 10 50 41 80 67 l54 49 -12 354 c-7 195
-13 356 -14 356 -2 2 -517 234 -532 240 -5 2 -131 -75 -280 -170z"/>
<path d="M8536 9277 l-98 -42 6 -80 c3 -44 11 -177 17 -295 7 -118 16 -220 21
-227 13 -16 470 -306 483 -306 5 0 96 53 200 117 147 90 211 136 283 204 l93
87 33 120 c36 133 27 122 151 178 l49 22 38 124 c21 68 37 125 36 126 -2 1
-142 -37 -313 -86 l-310 -88 -291 95 c-159 52 -292 94 -295 94 -2 -1 -48 -20
-103 -43z"/>
<path d="M3643 9169 c-84 -147 -73 -137 -208 -168 l-120 -26 -74 -151 -74
-152 -65 -7 c-112 -12 -115 -1 50 -195 82 -96 153 -174 158 -173 5 2 103 59
219 128 116 69 218 128 226 131 8 3 57 -19 109 -49 l93 -55 7 243 8 243 -129
165 c-70 91 -131 166 -135 166 -4 1 -33 -44 -65 -100z"/>
<path d="M9853 9144 c-18 -66 -33 -125 -33 -132 0 -15 -6 -18 -100 -52 -45
-16 -83 -30 -85 -32 -2 -2 -11 -52 -20 -113 l-17 -110 -89 -85 -90 -85 25
-865 c14 -476 30 -1027 36 -1225 17 -549 27 -1674 18 -2010 -4 -165 -12 -813
-17 -1440 -6 -627 -14 -1282 -17 -1455 -4 -173 -4 -312 0 -309 3 3 28 54 54
112 l47 106 95 71 c89 67 97 76 157 179 l62 109 12 1178 c9 860 10 1868 3
3729 l-9 2550 -32 -121z"/>
<path d="M7185 8444 c-104 -95 -192 -173 -195 -174 -3 0 -83 74 -179 165 -95
91 -177 165 -182 165 -4 0 -107 -87 -229 -194 l-222 -194 -316 190 c-173 104
-320 187 -327 184 -6 -2 -101 -84 -211 -181 -109 -98 -206 -184 -215 -191 -14
-13 -34 6 -170 156 -85 93 -157 170 -162 170 -4 0 -95 -66 -203 -147 l-195
-146 5 -36 c14 -91 67 -594 63 -598 -5 -4 -470 -73 -474 -70 -1 1 -4 133 -7
292 -4 160 -9 344 -12 410 l-6 120 -85 54 c-47 30 -91 54 -97 54 -6 0 -114
-60 -240 -133 l-229 -134 -36 40 c-20 21 -100 110 -178 196 l-142 157 -5 -62
c-9 -102 -26 -781 -32 -1289 -6 -415 -3 -544 20 -1053 50 -1136 66 -1612 66
-2005 0 -289 -16 -824 -69 -2365 -10 -286 -17 -521 -16 -523 2 -2 99 1 216 7
829 41 1937 49 2559 19 542 -26 1091 -47 2040 -78 338 -11 746 -24 905 -30
160 -5 404 -13 543 -16 l252 -7 0 194 c0 107 7 921 16 1809 19 1813 12 2439
-46 4205 -6 176 -15 483 -19 683 -5 199 -11 365 -13 368 -3 2 -90 -44 -194
-105 l-189 -109 -68 34 c-68 35 -312 180 -383 228 -21 14 -39 24 -41 23 -1 -2
6 -156 17 -342 10 -187 18 -340 17 -341 -3 -3 -405 -94 -414 -94 -5 0 -19 132
-32 293 -13 160 -25 293 -26 295 -2 2 -44 -24 -95 -58 l-91 -61 -232 193
c-128 107 -236 197 -242 200 -5 3 -95 -72 -200 -168z"/>
</g>
</svg>
